<?xml version="1.0" encoding="utf-8"?>
<!-- Generator: Adobe Illustrator 16.0.0, SVG Export Plug-In . SVG Version: 6.00 Build 0)  -->
<!DOCTYPE svg PUBLIC "-//W3C//DTD SVG 1.1//EN" "http://www.w3.org/Graphics/SVG/1.1/DTD/svg11.dtd">
<svg version="1.1" id="Layer_1" xmlns="http://www.w3.org/2000/svg" xmlns:xlink="http://www.w3.org/1999/xlink" x="0px" y="0px"
	 width="111.004px" height="76.469px" viewBox="0 0 111.004 76.469" enable-background="new 0 0 111.004 76.469"
	 xml:space="preserve">
<path fill-rule="evenodd" clip-rule="evenodd" fill="#28282A" d="M59.202,76.469c2.723,0,4.973-2.225,4.559-4.914
	c-2.363-15.378-15.654-27.154-31.693-27.154S2.738,56.178,0.375,71.556c-0.415,2.689,1.835,4.914,4.559,4.914H59.202z"/>
<path fill-rule="evenodd" clip-rule="evenodd" fill="#FFFFFF" d="M5.575,69.104c-0.232,1.342,0.839,2.452,2.2,2.452l48.96-0.02
	c1.361,0,2.205-1.076,1.786-2.373C48.95,39.532,9.324,47.381,5.575,69.104z"/>
<circle fill-rule="evenodd" clip-rule="evenodd" fill="#28282A" cx="32.068" cy="32.068" r="32.068"/>
<circle fill-rule="evenodd" clip-rule="evenodd" fill="#FFFFFF" cx="32.068" cy="32.068" r="27.134"/>
<path fill-rule="evenodd" clip-rule="evenodd" fill="#28282A" d="M69.563,19.734c0-2.723,2.21-4.933,4.934-4.933h31.574
	c2.724,0,4.934,2.21,4.934,4.933c0,2.724-2.21,4.934-4.934,4.934H74.496C71.772,24.667,69.563,22.458,69.563,19.734z"/>
<circle fill-rule="evenodd" clip-rule="evenodd" fill="#28282A" cx="46.868" cy="32.068" r="4.934"/>
<circle fill-rule="evenodd" clip-rule="evenodd" fill="#28282A" cx="17.267" cy="32.068" r="4.933"/>
<path fill-rule="evenodd" clip-rule="evenodd" fill="#28282A" d="M69.563,39.468c0-2.724,2.21-4.934,4.934-4.934h31.574
	c2.724,0,4.934,2.21,4.934,4.934c0,2.723-2.21,4.933-4.934,4.933H74.496C71.772,44.401,69.563,42.191,69.563,39.468z"/>
<path fill-rule="evenodd" clip-rule="evenodd" fill="#28282A" d="M69.563,59.202c0-2.723,2.21-4.934,4.934-4.934h31.574
	c2.724,0,4.934,2.21,4.934,4.934s-2.21,4.934-4.934,4.934H74.496C71.772,64.136,69.563,61.925,69.563,59.202z"/>
</svg>
